<?xml version="1.0" encoding="UTF-8" standalone="no"?><!DOCTYPE svg PUBLIC "-//W3C//DTD SVG 1.1//EN" "http://www.w3.org/Graphics/SVG/1.1/DTD/svg11.dtd"><svg width="100%" height="100%" viewBox="0 0 668 651" version="1.1" xmlns="http://www.w3.org/2000/svg" xmlns:xlink="http://www.w3.org/1999/xlink" xml:space="preserve" xmlns:serif="http://www.serif.com/" style="fill-rule:evenodd;clip-rule:evenodd;stroke-linejoin:round;stroke-miterlimit:2;"><path d="M175.792,102.549c-0.336,-0.777 -0.656,-1.56 -0.962,-2.35c-13.333,-34.447 3.808,-73.238 38.255,-86.572c34.447,-13.333 73.238,3.808 86.572,38.255c0.305,0.79 0.596,1.585 0.871,2.385l21.674,62.997l14.608,-65c0.185,-0.826 0.386,-1.648 0.603,-2.466c9.461,-35.706 46.129,-57.013 81.835,-47.553c35.705,9.46 57.012,46.129 47.552,81.834c-0.217,0.819 -0.449,1.633 -0.697,2.443l-19.493,63.704l50.023,-43.999c0.635,-0.56 1.282,-1.107 1.938,-1.641c28.641,-23.326 70.831,-19.01 94.156,9.63c23.326,28.641 19.01,70.831 -9.63,94.156c-0.657,0.535 -1.323,1.057 -1.999,1.566l-53.216,40.08l66.332,-6.193c0.843,-0.079 1.687,-0.142 2.533,-0.188c36.881,-2.037 68.477,26.253 70.513,63.134c2.036,36.881 -26.254,68.477 -63.135,70.513c-0.845,0.047 -1.691,0.078 -2.538,0.092l-66.61,1.147l57.304,33.978c0.728,0.432 1.448,0.877 2.159,1.336c31.035,20.031 39.968,61.49 19.937,92.524c-20.031,31.034 -61.489,39.968 -92.523,19.937c-0.712,-0.459 -1.414,-0.932 -2.108,-1.418l-54.562,-38.225l26.388,61.171c0.335,0.778 0.656,1.561 0.961,2.351c13.334,34.447 -3.808,73.238 -38.255,86.572c-34.446,13.333 -73.238,-3.808 -86.571,-38.255c-0.306,-0.79 -0.597,-1.585 -0.872,-2.385l-21.674,-62.997l-14.607,65c-0.186,0.826 -0.387,1.648 -0.604,2.466c-9.46,35.706 -46.129,57.013 -81.834,47.553c-35.706,-9.461 -57.013,-46.129 -47.553,-81.835c0.217,-0.818 0.449,-1.632 0.697,-2.442l19.494,-63.704l-50.023,43.999c-0.636,0.559 -1.282,1.107 -1.939,1.641c-28.64,23.326 -70.83,19.01 -94.156,-9.63c-23.325,-28.641 -19.01,-70.831 9.631,-94.156c0.656,-0.535 1.323,-1.057 1.999,-1.566l53.215,-40.08l-66.332,6.193c-0.843,0.079 -1.687,0.142 -2.532,0.188c-36.882,2.036 -68.477,-26.253 -70.514,-63.134c-2.036,-36.881 26.254,-68.477 63.135,-70.514c0.845,-0.046 1.691,-0.077 2.538,-0.091l66.61,-1.147l-57.304,-33.978c-0.728,-0.432 -1.448,-0.877 -2.159,-1.336c-31.034,-20.031 -39.968,-61.49 -19.937,-92.524c20.031,-31.034 61.489,-39.968 92.524,-19.937c0.711,0.459 1.414,0.932 2.107,1.418l54.563,38.225l-26.388,-61.172Z" style="fill:#fff;"/></svg>