<?xml version="1.0" encoding="UTF-8" standalone="no"?><!DOCTYPE svg PUBLIC "-//W3C//DTD SVG 1.1//EN" "http://www.w3.org/Graphics/SVG/1.1/DTD/svg11.dtd"><svg width="100%" height="100%" viewBox="0 0 656 660" version="1.1" xmlns="http://www.w3.org/2000/svg" xmlns:xlink="http://www.w3.org/1999/xlink" xml:space="preserve" xmlns:serif="http://www.serif.com/" style="fill-rule:evenodd;clip-rule:evenodd;stroke-linejoin:round;stroke-miterlimit:2;"><path d="M290.331,70.766c-0.182,-4.136 0.016,-8.279 0.59,-12.379c5.192,-37.05 39.486,-62.915 76.536,-57.724c37.05,5.191 62.915,39.485 57.724,76.535c-0.574,4.1 -1.523,8.138 -2.834,12.065l-46.441,139.075l89.232,-116.346c2.519,-3.285 5.334,-6.332 8.409,-9.103c27.792,-25.045 70.689,-22.815 95.734,4.977c25.045,27.792 22.815,70.689 -4.977,95.734c-3.075,2.771 -6.398,5.255 -9.926,7.42l-124.972,76.686l143.142,-31.77c4.041,-0.897 8.156,-1.421 12.293,-1.568c37.388,-1.321 68.816,27.961 70.137,65.35c1.322,37.388 -27.96,68.816 -65.349,70.137c-4.137,0.146 -8.279,-0.087 -12.373,-0.696l-145.027,-21.585l130.074,67.672c3.672,1.911 7.161,4.154 10.425,6.701c29.49,23.021 34.743,65.653 11.722,95.144c-23.02,29.49 -65.653,34.743 -95.144,11.723c-3.263,-2.548 -6.286,-5.388 -9.03,-8.487l-97.223,-109.757l56.143,135.45c1.585,3.824 2.817,7.785 3.679,11.834c7.794,36.591 -15.586,72.626 -52.177,80.42c-36.591,7.794 -72.626,-15.586 -80.42,-52.177c-0.862,-4.049 -1.352,-8.168 -1.462,-12.306l-3.927,-146.572l-44.057,139.848c-1.244,3.949 -2.847,7.775 -4.789,11.431c-17.55,33.04 -58.623,45.616 -91.663,28.066c-33.04,-17.55 -45.616,-58.623 -28.066,-91.663c1.942,-3.656 4.215,-7.126 6.79,-10.367l91.207,-114.805l-123.643,78.811c-3.491,2.225 -7.178,4.126 -11.016,5.678c-34.682,14.03 -74.229,-2.738 -88.258,-37.419c-14.03,-34.682 2.737,-74.23 37.419,-88.259c3.838,-1.552 7.809,-2.75 11.865,-3.578l143.664,-29.318l-145.375,-19.104c-4.104,-0.539 -8.15,-1.453 -12.088,-2.731c-35.586,-11.546 -55.103,-49.811 -43.557,-85.396c11.546,-35.586 49.811,-55.103 85.397,-43.557c3.937,1.277 7.749,2.913 11.388,4.886l128.899,69.886l-99.084,-108.08c-2.798,-3.051 -5.31,-6.352 -7.505,-9.862c-19.838,-31.719 -10.193,-73.577 21.525,-93.415c31.719,-19.839 73.577,-10.194 93.416,21.525c2.195,3.51 4.064,7.213 5.584,11.064l53.82,136.389l-6.431,-146.483Z" style="fill:#e73937;"/></svg>