<?xml version="1.0" encoding="UTF-8" standalone="no"?><!DOCTYPE svg PUBLIC "-//W3C//DTD SVG 1.1//EN" "http://www.w3.org/Graphics/SVG/1.1/DTD/svg11.dtd"><svg width="100%" height="100%" viewBox="0 0 627 627" version="1.1" xmlns="http://www.w3.org/2000/svg" xmlns:xlink="http://www.w3.org/1999/xlink" xml:space="preserve" xmlns:serif="http://www.serif.com/" style="fill-rule:evenodd;clip-rule:evenodd;stroke-linejoin:round;stroke-miterlimit:2;"><path d="M197.878,192.34c-35.812,-92.538 -38.171,-178.007 -5.263,-190.742c32.908,-12.736 88.7,52.054 124.513,144.592c40.11,-90.758 98.878,-152.861 131.153,-138.597c32.275,14.263 25.913,99.528 -14.198,190.285c92.538,-35.812 178.007,-38.171 190.742,-5.263c12.736,32.908 -52.054,88.7 -144.591,124.513c90.757,40.11 152.86,98.878 138.597,131.153c-14.264,32.275 -99.529,25.913 -190.286,-14.198c35.813,92.538 38.171,178.007 5.263,190.742c-32.907,12.736 -88.7,-52.054 -124.513,-144.591c-40.11,90.757 -98.878,152.86 -131.153,138.597c-32.274,-14.264 -25.913,-99.529 14.198,-190.286c-92.538,35.813 -178.007,38.171 -190.742,5.263c-12.736,-32.907 52.054,-88.7 144.592,-124.513c-90.758,-40.11 -152.861,-98.878 -138.597,-131.153c14.263,-32.274 99.528,-25.913 190.285,14.198Z" style="fill:#fff;"/></svg>