<?xml version="1.0" encoding="UTF-8" standalone="no"?><!DOCTYPE svg PUBLIC "-//W3C//DTD SVG 1.1//EN" "http://www.w3.org/Graphics/SVG/1.1/DTD/svg11.dtd"><svg width="100%" height="100%" viewBox="0 0 652 659" version="1.1" xmlns="http://www.w3.org/2000/svg" xmlns:xlink="http://www.w3.org/1999/xlink" xml:space="preserve" xmlns:serif="http://www.serif.com/" style="fill-rule:evenodd;clip-rule:evenodd;stroke-linejoin:round;stroke-miterlimit:2;"><path d="M247.627,185.21c-18.922,-95.92 -9.165,-178.75 21.776,-184.853c30.94,-6.104 71.422,66.815 90.344,162.735c47.161,-85.642 107.877,-142.821 135.502,-127.608c27.626,15.212 11.765,97.093 -35.396,182.734c91.177,-35.291 174.443,-40.065 185.826,-10.654c11.384,29.41 -53.398,81.939 -144.574,117.23c92.53,31.573 159.384,81.438 149.199,111.285c-10.184,29.847 -93.575,28.446 -186.105,-3.127c50.588,83.664 69.748,164.835 42.761,181.153c-26.987,16.318 -89.967,-38.358 -140.554,-122.021c-15.026,96.606 -52.524,171.104 -83.687,166.257c-31.162,-4.847 -44.262,-87.214 -29.237,-183.82c-73.608,64.346 -150.219,97.311 -170.975,73.568c-20.756,-23.744 22.152,-95.262 95.76,-159.608c-97.748,1.978 -177.625,-22.015 -178.263,-53.545c-0.638,-31.53 78.203,-58.735 175.951,-60.713c-76.151,-61.316 -121.919,-131.039 -102.14,-155.603c19.778,-24.564 97.661,5.274 173.812,66.59Z" style="fill:#fff;"/></svg>