<?xml version="1.0" encoding="UTF-8" standalone="no"?><!DOCTYPE svg PUBLIC "-//W3C//DTD SVG 1.1//EN" "http://www.w3.org/Graphics/SVG/1.1/DTD/svg11.dtd"><svg width="100%" height="100%" viewBox="0 0 651 655" version="1.1" xmlns="http://www.w3.org/2000/svg" xmlns:xlink="http://www.w3.org/1999/xlink" xml:space="preserve" xmlns:serif="http://www.serif.com/" style="fill-rule:evenodd;clip-rule:evenodd;stroke-linejoin:round;stroke-miterlimit:2;"><path d="M134.982,181.132c-4.654,-4.345 -8.812,-9.193 -12.398,-14.455c-26.771,-39.285 -16.611,-92.913 22.673,-119.684c39.285,-26.771 92.913,-16.611 119.684,22.674c3.586,5.261 6.577,10.905 8.919,16.826l38.627,97.666l8.171,-104.709c0.495,-6.348 1.693,-12.622 3.571,-18.706c14.023,-45.424 62.286,-70.917 107.709,-56.895c45.424,14.023 70.917,62.286 56.895,107.709c-1.878,6.085 -4.425,11.942 -7.595,17.464l-52.274,91.094l86.959,-58.896c5.272,-3.571 10.924,-6.546 16.851,-8.871c44.257,-17.358 94.28,4.48 111.638,48.737c17.358,44.256 -4.48,94.279 -48.737,111.637c-5.928,2.325 -12.095,3.986 -18.389,4.951l-103.813,15.926l100.266,31.266c6.078,1.896 11.928,4.46 17.442,7.645c41.164,23.778 55.279,76.504 31.501,117.668c-23.779,41.165 -76.505,55.28 -117.669,31.501c-5.514,-3.185 -10.657,-6.971 -15.336,-11.29l-77.178,-71.234l38.07,97.884c2.308,5.935 3.951,12.107 4.898,18.403c7.075,47.01 -25.347,90.919 -72.356,97.994c-47.01,7.075 -90.919,-25.347 -97.994,-72.357c-0.948,-6.297 -1.194,-12.679 -0.735,-19.03l7.574,-104.753l-52.793,90.794c-3.201,5.504 -7.002,10.637 -11.334,15.304c-32.343,34.841 -86.887,36.869 -121.729,4.527c-34.841,-32.343 -36.869,-86.887 -4.527,-121.728c4.332,-4.667 9.169,-8.839 14.42,-12.44l86.622,-59.391l-103.902,15.334c-6.299,0.929 -12.682,1.158 -19.031,0.68c-47.406,-3.563 -82.999,-44.943 -79.436,-92.348c3.563,-47.405 44.943,-82.999 92.348,-79.436c6.35,0.478 12.627,1.658 18.716,3.518l100.442,30.694l-76.77,-71.673Z" style="fill:#e73937;"/></svg>