<?xml version="1.0" encoding="UTF-8" standalone="no"?><!DOCTYPE svg PUBLIC "-//W3C//DTD SVG 1.1//EN" "http://www.w3.org/Graphics/SVG/1.1/DTD/svg11.dtd"><svg width="100%" height="100%" viewBox="0 0 651 651" version="1.1" xmlns="http://www.w3.org/2000/svg" xmlns:xlink="http://www.w3.org/1999/xlink" xml:space="preserve" xmlns:serif="http://www.serif.com/" style="fill-rule:evenodd;clip-rule:evenodd;stroke-linejoin:round;stroke-miterlimit:2;"><path d="M578.875,455.458l-49.932,-10.699l33.692,38.373c20.376,23.209 19.114,58.282 -2.878,79.966c-21.992,21.683 -57.08,22.449 -79.998,1.746l-37.893,-34.23l9.991,50.077c6.043,30.288 -12.587,60.031 -42.475,67.813c-29.887,7.783 -60.657,-9.098 -70.153,-38.486l-15.701,-48.591l-16.386,48.364c-9.911,29.251 -40.916,45.695 -70.691,37.491c-29.775,-8.205 -47.982,-38.208 -41.512,-68.407l10.698,-49.932l-38.373,33.692c-23.208,20.376 -58.281,19.114 -79.965,-2.878c-21.683,-21.992 -22.449,-57.08 -1.746,-79.998l34.23,-37.893l-50.078,9.991c-30.287,6.043 -60.03,-12.587 -67.812,-42.475c-7.783,-29.887 9.098,-60.657 38.486,-70.153l48.591,-15.701l-48.364,-16.386c-29.251,-9.911 -45.695,-40.916 -37.491,-70.691c8.204,-29.775 38.208,-47.982 68.407,-41.512l49.931,10.698l-33.691,-38.373c-20.377,-23.208 -19.114,-58.281 2.878,-79.965c21.992,-21.683 57.08,-22.449 79.998,-1.746l37.893,34.23l-9.991,-50.078c-6.043,-30.287 12.587,-60.03 42.474,-67.812c29.888,-7.783 60.658,9.098 70.154,38.486l15.701,48.591l16.386,-48.364c9.911,-29.251 40.916,-45.695 70.691,-37.491c29.775,8.204 47.982,38.208 41.512,68.407l-10.699,49.931l38.373,-33.691c23.209,-20.377 58.282,-19.114 79.966,2.878c21.683,21.992 22.449,57.08 1.746,79.998l-34.23,37.893l50.077,-9.991c30.288,-6.043 60.031,12.587 67.813,42.474c7.783,29.888 -9.098,60.658 -38.486,70.154l-48.591,15.701l48.364,16.386c29.251,9.911 45.695,40.916 37.491,70.691c-8.205,29.775 -38.208,47.982 -68.407,41.512Z" style="fill:#e73937;"/></svg>