<?xml version="1.0" encoding="UTF-8" standalone="no"?><!DOCTYPE svg PUBLIC "-//W3C//DTD SVG 1.1//EN" "http://www.w3.org/Graphics/SVG/1.1/DTD/svg11.dtd"><svg width="100%" height="100%" viewBox="0 0 656 644" version="1.1" xmlns="http://www.w3.org/2000/svg" xmlns:xlink="http://www.w3.org/1999/xlink" xml:space="preserve" xmlns:serif="http://www.serif.com/" style="fill-rule:evenodd;clip-rule:evenodd;stroke-linejoin:round;stroke-miterlimit:2;"><path d="M244.876,104.074c-1.327,-6.083 -1.988,-12.292 -1.972,-18.519c0.128,-47.346 38.67,-85.682 86.016,-85.555c47.347,0.127 85.683,38.67 85.555,86.016c-0.016,6.226 -0.711,12.432 -2.071,18.508l-23.091,103.161l66.699,-82.016c3.928,-4.831 8.371,-9.219 13.249,-13.088c37.096,-29.421 91.099,-23.189 120.52,13.907c29.42,37.096 23.189,91.099 -13.907,120.52c-4.879,3.869 -10.163,7.195 -15.762,9.92l-95.051,46.266l105.709,1.011c6.226,0.06 12.426,0.797 18.493,2.199c46.131,10.659 74.929,56.766 64.27,102.897c-10.66,46.131 -56.766,74.929 -102.897,64.27c-6.067,-1.402 -11.962,-3.46 -17.583,-6.138l-95.437,-45.468l65.118,83.277c3.836,4.905 7.125,10.213 9.812,15.829c20.428,42.713 2.336,93.976 -40.377,114.404c-42.712,20.428 -93.975,2.336 -114.403,-40.377c-2.686,-5.617 -4.753,-11.509 -6.164,-17.573l-23.956,-102.964l-24.508,102.833c-1.443,6.057 -3.542,11.938 -6.258,17.541c-20.658,42.602 -72.017,60.419 -114.619,39.761c-42.602,-20.657 -60.419,-72.016 -39.762,-114.618c2.717,-5.602 6.035,-10.892 9.897,-15.776l65.564,-82.926l-95.679,44.954c-5.635,2.648 -11.542,4.674 -17.616,6.043c-46.187,10.412 -92.139,-18.634 -102.55,-64.821c-10.412,-46.188 18.634,-92.139 64.821,-102.551c6.074,-1.369 12.279,-2.073 18.505,-2.099l105.713,-0.443l-94.802,-46.776c-5.584,-2.755 -10.851,-6.11 -15.708,-10.005c-36.937,-29.619 -42.879,-83.655 -13.26,-120.593c29.62,-36.937 83.655,-42.879 120.593,-13.259c4.857,3.895 9.276,8.307 13.179,13.159l66.257,82.373l-22.537,-103.284Z" style="fill:#e73937;"/></svg>