<?xml version="1.0" encoding="UTF-8" standalone="no"?><!DOCTYPE svg PUBLIC "-//W3C//DTD SVG 1.1//EN" "http://www.w3.org/Graphics/SVG/1.1/DTD/svg11.dtd"><svg width="100%" height="100%" viewBox="0 0 667 652" version="1.1" xmlns="http://www.w3.org/2000/svg" xmlns:xlink="http://www.w3.org/1999/xlink" xml:space="preserve" xmlns:serif="http://www.serif.com/" style="fill-rule:evenodd;clip-rule:evenodd;stroke-linejoin:round;stroke-miterlimit:2;"><path d="M223.756,199.366c-37.538,-89.139 -46.693,-170.486 -20.433,-181.545c26.26,-11.058 78.056,52.333 115.593,141.472c22.026,-94.178 62.434,-165.371 90.179,-158.882c27.745,6.489 32.388,88.218 10.361,182.397c73.177,-63.246 147.714,-97.091 166.346,-75.533c18.632,21.558 -25.651,90.407 -98.828,153.652c96.376,-8.154 176.571,8.276 178.973,36.669c2.403,28.392 -73.892,58.063 -170.268,66.217c82.763,50.052 137.985,110.482 123.24,134.864c-14.745,24.381 -93.909,3.541 -176.672,-46.51c37.537,89.139 46.693,170.486 20.432,181.545c-26.26,11.058 -78.055,-52.333 -115.592,-141.473c-22.027,94.179 -62.435,165.372 -90.18,158.883c-27.744,-6.489 -32.387,-88.218 -10.361,-182.397c-73.176,63.246 -147.713,97.091 -166.345,75.533c-18.632,-21.558 25.651,-90.407 98.828,-153.653c-96.376,8.155 -176.572,-8.276 -178.974,-36.668c-2.402,-28.392 73.893,-58.063 170.268,-66.218c-82.762,-50.051 -137.984,-110.481 -123.239,-134.863c14.745,-24.381 93.909,-3.541 176.672,46.51Z" style="fill:#fff;"/></svg>