<?xml version="1.0" encoding="UTF-8" standalone="no"?><!DOCTYPE svg PUBLIC "-//W3C//DTD SVG 1.1//EN" "http://www.w3.org/Graphics/SVG/1.1/DTD/svg11.dtd"><svg width="100%" height="100%" viewBox="0 0 632 632" version="1.1" xmlns="http://www.w3.org/2000/svg" xmlns:xlink="http://www.w3.org/1999/xlink" xml:space="preserve" xmlns:serif="http://www.serif.com/" style="fill-rule:evenodd;clip-rule:evenodd;stroke-linejoin:round;stroke-miterlimit:2;"><path d="M332.789,71.376c0.69,-7.597 2.485,-15.052 5.327,-22.132c16.134,-40.188 61.86,-59.716 102.048,-43.582c40.188,16.134 59.717,61.86 43.583,102.048c-2.842,7.079 -6.701,13.706 -11.456,19.671l-121.491,152.436l149.743,-124.795c5.86,-4.884 12.401,-8.887 19.416,-11.883c39.826,-17.008 85.968,1.516 102.977,41.342c17.009,39.825 -1.516,85.968 -41.342,102.977c-7.015,2.996 -14.43,4.953 -22.01,5.809l-193.695,21.881l194.127,17.641c7.597,0.69 15.053,2.485 22.132,5.327c40.188,16.134 59.717,61.86 43.583,102.048c-16.134,40.188 -61.861,59.717 -102.049,43.583c-7.079,-2.842 -13.706,-6.701 -19.671,-11.456l-152.435,-121.491l124.794,149.743c4.884,5.86 8.887,12.401 11.883,19.416c17.009,39.826 -1.516,85.968 -41.341,102.977c-39.826,17.009 -85.968,-1.516 -102.977,-41.342c-2.996,-7.015 -4.953,-14.43 -5.809,-22.01l-21.881,-193.695l-17.641,194.127c-0.691,7.597 -2.485,15.053 -5.327,22.132c-16.134,40.188 -61.861,59.717 -102.049,43.583c-40.188,-16.134 -59.716,-61.861 -43.582,-102.049c2.842,-7.079 6.701,-13.706 11.455,-19.671l121.491,-152.435l-149.742,124.794c-5.86,4.884 -12.401,8.887 -19.417,11.883c-39.825,17.009 -85.968,-1.516 -102.976,-41.341c-17.009,-39.826 1.515,-85.968 41.341,-102.977c7.015,-2.996 14.43,-4.953 22.01,-5.809l193.695,-21.881l-194.127,-17.641c-7.597,-0.691 -15.052,-2.485 -22.132,-5.327c-40.188,-16.134 -59.716,-61.861 -43.582,-102.049c16.134,-40.188 61.86,-59.716 102.048,-43.582c7.079,2.842 13.706,6.701 19.671,11.455l152.436,121.491l-124.795,-149.742c-4.884,-5.86 -8.887,-12.401 -11.883,-19.417c-17.008,-39.825 1.516,-85.968 41.342,-102.976c39.825,-17.009 85.968,1.515 102.977,41.341c2.996,7.015 4.953,14.43 5.809,22.01l21.881,193.695l17.641,-194.127Z" style="fill:#fff;"/></svg>