<?xml version="1.0" encoding="UTF-8" standalone="no"?><!DOCTYPE svg PUBLIC "-//W3C//DTD SVG 1.1//EN" "http://www.w3.org/Graphics/SVG/1.1/DTD/svg11.dtd"><svg width="100%" height="100%" viewBox="0 0 659 659" version="1.1" xmlns="http://www.w3.org/2000/svg" xmlns:xlink="http://www.w3.org/1999/xlink" xml:space="preserve" xmlns:serif="http://www.serif.com/" style="fill-rule:evenodd;clip-rule:evenodd;stroke-linejoin:round;stroke-miterlimit:2;"><path d="M395.299,93.248c2.216,-7.299 5.485,-14.236 9.703,-20.592c23.946,-36.083 72.682,-45.936 108.765,-21.989c36.082,23.946 45.935,72.682 21.989,108.765c-4.218,6.356 -9.341,12.062 -15.206,16.94l-149.872,124.64l171.934,-91.846c6.728,-3.594 13.945,-6.188 21.422,-7.699c42.446,-8.582 83.875,18.912 92.457,61.359c8.581,42.447 -18.913,83.876 -61.36,92.457c-7.477,1.512 -15.134,1.925 -22.731,1.227l-194.109,-17.842l186.52,56.631c7.299,2.216 14.236,5.485 20.592,9.703c36.083,23.946 45.936,72.682 21.989,108.765c-23.946,36.082 -72.682,45.935 -108.764,21.989c-6.356,-4.218 -12.063,-9.341 -16.941,-15.206l-124.639,-149.872l91.845,171.934c3.594,6.728 6.188,13.945 7.7,21.422c8.581,42.446 -18.913,83.875 -61.36,92.457c-42.447,8.581 -83.876,-18.913 -92.457,-61.36c-1.512,-7.477 -1.925,-15.134 -1.227,-22.731l17.842,-194.109l-56.631,186.52c-2.216,7.299 -5.484,14.236 -9.703,20.592c-23.946,36.083 -72.682,45.936 -108.764,21.989c-36.083,-23.946 -45.936,-72.682 -21.99,-108.764c4.218,-6.356 9.341,-12.063 15.206,-16.941l149.872,-124.639l-171.933,91.845c-6.729,3.594 -13.945,6.188 -21.422,7.7c-42.447,8.581 -83.876,-18.913 -92.457,-61.36c-8.582,-42.447 18.912,-83.876 61.359,-92.457c7.477,-1.512 15.135,-1.925 22.731,-1.227l194.109,17.842l-186.52,-56.631c-7.299,-2.216 -14.236,-5.484 -20.592,-9.703c-36.083,-23.946 -45.936,-72.682 -21.989,-108.764c23.946,-36.083 72.682,-45.936 108.765,-21.99c6.356,4.218 12.062,9.341 16.94,15.206l124.64,149.872l-91.846,-171.933c-3.594,-6.729 -6.188,-13.945 -7.699,-21.422c-8.582,-42.447 18.912,-83.876 61.359,-92.457c42.447,-8.582 83.876,18.912 92.457,61.359c1.512,7.477 1.925,15.135 1.227,22.731l-17.842,194.109l56.631,-186.52Z" style="fill:#e73937;"/></svg>