<?xml version="1.0" encoding="UTF-8" standalone="no"?><!DOCTYPE svg PUBLIC "-//W3C//DTD SVG 1.1//EN" "http://www.w3.org/Graphics/SVG/1.1/DTD/svg11.dtd"><svg width="100%" height="100%" viewBox="0 0 100 100" version="1.1" xmlns="http://www.w3.org/2000/svg" xmlns:xlink="http://www.w3.org/1999/xlink" xml:space="preserve" xmlns:serif="http://www.serif.com/" style="fill-rule:evenodd;clip-rule:evenodd;stroke-linejoin:round;stroke-miterlimit:2;"><rect id="Artboard1" x="0" y="0" width="100" height="100" style="fill:#525252;fill-opacity:0;"/><path d="M77.671,71.779c1.05,0.026 1.977,0.695 2.332,1.684c0.355,0.989 0.065,2.094 -0.729,2.783c-1.69,1.461 -3.542,2.783 -5.547,3.941c-17.168,9.912 -39.154,4.021 -49.067,-13.147c-9.912,-17.168 -4.021,-39.154 13.148,-49.066c2.005,-1.158 4.077,-2.101 6.187,-2.834c0.993,-0.343 2.095,-0.041 2.774,0.761c0.679,0.802 0.795,1.938 0.293,2.861c-5.734,10.613 -5.995,23.868 0.473,35.071c6.468,11.204 18.078,17.605 30.136,17.946Z" style="fill:#fff;"/></svg>