<?xml version="1.0" encoding="UTF-8" standalone="no"?><!DOCTYPE svg PUBLIC "-//W3C//DTD SVG 1.1//EN" "http://www.w3.org/Graphics/SVG/1.1/DTD/svg11.dtd"><svg width="100%" height="100%" viewBox="0 0 100 100" version="1.1" xmlns="http://www.w3.org/2000/svg" xmlns:xlink="http://www.w3.org/1999/xlink" xml:space="preserve" xmlns:serif="http://www.serif.com/" style="fill-rule:evenodd;clip-rule:evenodd;stroke-linejoin:round;stroke-miterlimit:2;"><rect id="Artboard1" x="0" y="0" width="100" height="100" style="fill:#525252;fill-opacity:0;"/><path d="M50,27.659l0,-15.159" style="fill:none;"/><path d="M52.5,27.659c0,1.38 -1.12,2.5 -2.5,2.5c-1.38,0 -2.5,-1.12 -2.5,-2.5l0,-15.159c0,-1.38 1.12,-2.5 2.5,-2.5c1.38,0 2.5,1.12 2.5,2.5l0,15.159Z" style="fill:#000;"/><path d="M34.203,34.203l-10.72,-10.72" style="fill:none;"/><path d="M35.97,32.435c0.976,0.975 0.976,2.56 0,3.535c-0.975,0.976 -2.56,0.976 -3.535,0l-10.719,-10.719c-0.976,-0.975 -0.976,-2.56 -0,-3.535c0.975,-0.976 2.56,-0.976 3.535,-0l10.719,10.719Z" style="fill:#000;"/><path d="M27.659,50l-15.159,-0" style="fill:none;"/><path d="M27.659,47.5c1.38,0 2.5,1.12 2.5,2.5c0,1.38 -1.12,2.5 -2.5,2.5l-15.159,-0c-1.38,0 -2.5,-1.12 -2.5,-2.5c-0,-1.38 1.12,-2.5 2.5,-2.5l15.159,-0Z" style="fill:#000;"/><path d="M34.203,65.797l-10.72,10.72" style="fill:none;"/><path d="M32.435,64.03c0.975,-0.976 2.56,-0.976 3.535,-0c0.976,0.975 0.976,2.56 0,3.535l-10.719,10.719c-0.975,0.976 -2.56,0.976 -3.535,0c-0.976,-0.975 -0.976,-2.56 -0,-3.535l10.719,-10.719Z" style="fill:#000;"/><path d="M50,72.341l0,15.159" style="fill:none;"/><path d="M47.5,72.341c0,-1.38 1.12,-2.5 2.5,-2.5c1.38,-0 2.5,1.12 2.5,2.5l0,15.159c0,1.38 -1.12,2.5 -2.5,2.5c-1.38,0 -2.5,-1.12 -2.5,-2.5l0,-15.159Z" style="fill:#000;"/><path d="M65.797,65.797l10.72,10.72" style="fill:none;"/><path d="M64.03,67.565c-0.976,-0.975 -0.976,-2.56 -0,-3.535c0.975,-0.976 2.56,-0.976 3.535,-0l10.719,10.719c0.976,0.975 0.976,2.56 0,3.535c-0.975,0.976 -2.56,0.976 -3.535,0l-10.719,-10.719Z" style="fill:#000;"/><path d="M72.341,50l15.159,-0" style="fill:none;"/><path d="M72.341,52.5c-1.38,0 -2.5,-1.12 -2.5,-2.5c-0,-1.38 1.12,-2.5 2.5,-2.5l15.159,-0c1.38,0 2.5,1.12 2.5,2.5c-0,1.38 -1.12,2.5 -2.5,2.5l-15.159,-0Z" style="fill:#000;"/><path d="M65.797,34.203l10.72,-10.72" style="fill:none;"/><path d="M67.565,35.97c-0.975,0.976 -2.56,0.976 -3.535,0c-0.976,-0.975 -0.976,-2.56 -0,-3.535l10.719,-10.719c0.975,-0.976 2.56,-0.976 3.535,-0c0.976,0.975 0.976,2.56 0,3.535l-10.719,10.719Z" style="fill:#000;"/><circle cx="50" cy="50" r="15.797" style="fill:#000;"/></svg>